<svg xmlns="http://www.w3.org/2000/svg" xmlns:xlink="http://www.w3.org/1999/xlink" width="796.999" height="768" viewBox="0 0 796.999 768">
  <defs>
    <linearGradient id="linear-gradient" x1="0.5" y1="1" x2="0.5" gradientUnits="objectBoundingBox">
      <stop offset="0" stop-color="gray" stop-opacity="0.251"/>
      <stop offset="0.54" stop-color="gray" stop-opacity="0.122"/>
      <stop offset="1" stop-color="gray" stop-opacity="0.102"/>
    </linearGradient>
  </defs>
  <g id="img-login" transform="translate(0 0)">
    <path id="Subtraction_2" data-name="Subtraction 2" d="M1182.021,1442H656V674h755.19c6.765,18.108,12.8,36.732,17.939,55.357,5.194,18.824,9.6,38.122,13.1,57.357,3.543,19.464,6.247,39.357,8.035,59.125,1.812,20.028,2.73,40.437,2.73,60.661a673.932,673.932,0,0,1-4.9,81.131A665.089,665.089,0,0,1,1182.021,1442Z" transform="translate(-656 -674)" fill="#014689" opacity="0.08"/>
    <g id="undraw_studying_s3l7" transform="translate(62.988 133.943)">
      <path id="Path_32" data-name="Path 32" d="M731.282,299.794c-.121.71-.241,1.421-.374,2.131-4.3,24.194-11.323,47.518-21.764,68.934q-.514,1.066-1.047,2.131a197,197,0,0,1-24.523,37.819c-5.2,6.274-10.873,12.23-17.616,16.531-9.452,6.026-20.5,8.475-31.362,10.479-11.285,2.087-22.716,3.806-34.121,5.709q-6.064.99-12.052,2.074c-11.018,1.992-21.955,4.295-32.63,7.346a169.621,169.621,0,0,0-38.06,15.656q-1.446.825-2.861,1.694c-.945.571-1.9,1.155-2.823,1.751s-1.846,1.186-2.759,1.789l-1.408.952c-.463.3-.92.634-1.376.939-1.358.926-2.7,1.9-4.034,2.842l-.051.038q-1.323.952-2.633,1.9c-4.942,3.66-9.775,7.492-14.59,11.336l-3.038,2.43Q479.8,496.141,477.45,498c-.92.729-1.852,1.453-2.778,2.176-.672.527-1.338,1.053-2.024,1.573-3.432,2.645-6.908,5.233-10.454,7.707-.844.59-1.7,1.18-2.537,1.757a133.783,133.783,0,0,1-22.544,12.42l-.1.044a89.449,89.449,0,0,1-11.976,4.13,71.7,71.7,0,0,1-7.054,1.529,62.344,62.344,0,0,1-19.125.33c-12.49-1.77-24.194-7.612-36.652-9.566-25.7-3.99-50.665,8.881-74.852,18.986q-8.881,3.717-17.958,6.978-6.014,2.17-12.084,4.13a380.473,380.473,0,0,1-75.823,16.22,175.207,175.207,0,0,1-32.193.869,108.722,108.722,0,0,1-12.052-1.567c-13.556-2.537-26.211-7.923-36.4-17.761-8.469-8.05-14.444-18.574-19-29.554q-2.747-6.616-4.84-13.537a150.97,150.97,0,0,1-4.929-22.094c-.247-1.687-.469-3.381-.634-5.075q-.495-4.358-.736-8.754a151.607,151.607,0,0,1,4.51-46.307c4.32-16.74,11.526-32.77,14.7-49.669.133-.71.254-1.421.374-2.131q.634-3.806.964-7.752c1.6-20.667-4.586-40.9-9.471-61.157-.171-.71-.343-1.421-.507-2.131q-.793-3.368-1.5-6.743c-4.523-21.428-5.76-44.359-1.744-65.743.127-.71.273-1.427.419-2.131a106.341,106.341,0,0,1,14.818-37.065c7.517-11.52,17.387-21.1,27.911-29.529q7.707-6.153,15.941-11.513,5.918-3.844,12.052-7.276A200.88,200.88,0,0,1,257.175,114.42q2.962.152,5.912.406,3.1.266,6.172.634c24,2.772,47.347,9.642,70.558,17.159q11.666,3.806,23.293,7.612,5.176,1.687,10.346,3.33c16.905,5.335,34.089,10.149,51.432,13.778q6.033,1.269,12.052,2.315a284.871,284.871,0,0,0,42.241,4.352q8.246.2,16.493-.171,4.168-.19,8.342-.558c28.742-2.461,56.456-10.714,84.285-18.466,4.022-1.123,8.05-2.239,12.052-3.318,5.29-1.421,10.587-2.8,15.9-4.066,33.1-7.948,62.6-3.381,93.369,13.01,6.978,3.724,13.955,8.215,18.269,15.167s5.36,15.56,6.159,23.845c1.129,11.786,1.9,23.737,2.15,35.739,0,.71,0,1.421.044,2.131A380.24,380.24,0,0,1,731.282,299.794Z" transform="translate(-70.44 -76.79)" opacity="0.15"/>
      <path id="Path_33" data-name="Path 33" d="M516.089,371h-2.163v2.131h2.449Zm-24.517,0a.138.138,0,0,0,0,.051l-.19,1.763v.317h18.776v-.127l1.339-2Zm-50.208,0V302.07h21.568c-.228-.19-.463-.381-.7-.558l-.317-.241c-.133-.108-.266-.209-.406-.3s-.469-.336-.717-.5-.4-.273-.634-.406l-.146-.1H441.364V296.19l-.5.241-.533.3h-.038l-.114.07-.33.216c-.114.07-.228.14-.336.216-.33.222-.634.463-.983.71l-.317.254c-.216.165-.419.336-.634.507-.844.691-1.675,1.415-2.537,2.081-.216.171-.431.336-.634.495a16.387,16.387,0,0,1-1.434.939,6.82,6.82,0,0,1-.634.349l-.355.165-.324.14h0a13.477,13.477,0,0,1-2.36.749V371H396.948a.977.977,0,0,0,.063.222c.178.634.355,1.269.527,1.9h31.768v73.894h.495l.565.038,1.028.076,1.662.165.749.089.825.1h.121c.476.063.958.14,1.446.216l.311.051.7.114,1,.178h0l2.4-.127h0l.33.07a1.926,1.926,0,0,1,.406.082V373.135h49.992v-.317l.19-1.763a.14.14,0,0,1,0-.051Zm74.725,0h-2.163v2.131h2.448Zm-25.868,0-.216,2.131h20.889L512.315,371Zm-48.844,0V302.07h21.568c-.228-.19-.463-.381-.7-.558l-.317-.241c-.133-.108-.266-.209-.406-.3s-.469-.336-.717-.5-.4-.273-.634-.406l-.146-.1H441.364V296.19l-.5.241-.533.3h-.038l-.114.07-.33.216c-.114.07-.228.14-.336.216-.33.222-.634.463-.983.71l-.317.254c-.216.165-.419.336-.634.507-.844.691-1.675,1.415-2.537,2.081-.216.171-.431.336-.634.495a16.387,16.387,0,0,1-1.434.939,6.82,6.82,0,0,1-.634.349l-.355.165-.324.14h0a13.477,13.477,0,0,1-2.36.749V371H396.948a.977.977,0,0,0,.063.222c.178.634.362,1.269.533,1.9h31.761v73.888l.495.032.565.038,1.028.076,1.662.165.749.089.825.1h.121c.476.063.958.14,1.446.216l.311.051.7.114,1,.178h0l2.4-.127h0l.33.07a1.922,1.922,0,0,1,.406.082V373.135h48.66l.228-2.131ZM604.821,227.453H740.716c0-.71,0-1.421-.044-2.131H604.821V141.626c-4.034,1.078-8.062,2.195-12.052,3.318v80.377h-147.8l-.374-.406.565-.634h0l54.972-60.332q-8.246.381-16.493.171l-42.272,46.37v-50.7q-6.052-1.047-12.052-2.315v50.684l-61.8-67.792c-7.758-2.537-15.516-5.119-23.293-7.612l84.006,92.163-.374.406H273.657V115.58q-3.083-.349-6.172-.634-2.95-.26-5.912-.406V225.321H153.557V139.939q-6.147,3.425-12.052,7.276v78.106H82.759c-.146.7-.292,1.421-.419,2.131h59.114v72.486H85.613c.165.71.336,1.421.507,2.131H141.48V371H94.608c-.121.71-.241,1.421-.374,2.131H141.48V565.88a108.722,108.722,0,0,0,12.052,1.567V373.135H261.573V550.357q6.077-1.973,12.084-4.13V373.135H429.286V527.978a89.43,89.43,0,0,0,11.976-4.13l.1-.044V373.135H592.73v72.613q6.02-1.085,12.052-2.074V373.135H712.412q.533-1.066,1.047-2.131H604.821V302.07H735.26c.133-.71.254-1.421.374-2.131H604.821Zm-451.257,0H261.573v72.486H153.557Zm0,143.551V302.07H261.573V371Zm120.1-143.551H429.286v72.486H273.657Zm0,143.551V302.07H429.286V371Zm319.073,0H441.364V302.07H592.73Zm0-71.046H441.364V229.394l2.125-1.941H592.73ZM491.578,371a.139.139,0,0,0,0,.051l-.19,1.763v.317h18.776v-.127l1.339-2Zm24.517,0h-2.163v2.131h2.449Zm-74.725,0V302.07h21.568c-.228-.19-.463-.381-.7-.558l-.317-.241c-.133-.108-.266-.209-.406-.3s-.469-.336-.717-.5-.4-.273-.634-.406l-.146-.1h-18.65V296.19l-.5.241-.533.3h-.038l-.114.07-.33.216c-.114.07-.228.14-.336.216-.33.222-.634.463-.983.71l-.317.254c-.216.165-.419.336-.634.507-.844.691-1.675,1.415-2.537,2.081-.216.171-.431.336-.634.495a16.387,16.387,0,0,1-1.434.939,6.82,6.82,0,0,1-.634.349l-.355.165-.324.14h0a13.477,13.477,0,0,1-2.36.749V371H396.948a.977.977,0,0,0,.063.222c.178.634.355,1.269.527,1.9h31.768v73.894h.495l.565.038,1.028.076,1.662.165.749.089.825.1h.121c.476.063.958.14,1.446.216l.311.051.7.114,1,.178h0l2.4-.127h0l.33.07a1.926,1.926,0,0,1,.406.082V373.135h49.992v-.317l.19-1.763a.14.14,0,0,1,0-.051Z" transform="translate(-74.787 -76.935)" fill="#fff" opacity="0.2"/>
      <path id="Path_34" data-name="Path 34" d="M274.176,211.249h.964a2.309,2.309,0,0,1-1.148-1.859h0c0-1.472,1.8-2.671,4-2.671H306c2.2,0,4,1.2,4,2.671h0c0,1.465-1.8,2.671-4,2.671h-.932a2.315,2.315,0,0,1,1.142,1.859c0,1.269-1.307,2.309-3.058,2.594h8.062c2.195,0,4,1.2,4,2.671s-1.8,2.664-4,2.664H283.178c-2.195,0-4-1.2-4-2.664,0-1.269,1.307-2.309,3.058-2.594h-8.062c-2.195,0-4-1.2-4-2.671S271.969,211.249,274.176,211.249Z" transform="translate(-143.472 -110.641)" fill="#6c63ff" opacity="0.1"/>
      <path id="Path_35" data-name="Path 35" d="M752.7,251.319h.939a2.315,2.315,0,0,1-1.148-1.865h0c0-1.465,1.8-2.664,4-2.664H784.5c2.2,0,4,1.2,4,2.664h0c0,1.472-1.8,2.671-4,2.671h-.932a2.322,2.322,0,0,1,1.142,1.865c0,1.269-1.307,2.3-3.057,2.588h8.062c2.195,0,4,1.205,4,2.671s-1.8,2.671-4,2.671h-28c-2.195,0-4-1.2-4-2.671,0-1.269,1.307-2.309,3.058-2.588H752.7c-2.195,0-4-1.205-4-2.671S750.514,251.319,752.7,251.319Z" transform="translate(-318.448 -125.293)" fill="#6c63ff" opacity="0.1"/>
      <path id="Path_36" data-name="Path 36" d="M206.446,422.786h.939a2.322,2.322,0,0,1-1.142-1.865h0c0-1.465,1.8-2.671,4-2.671h28.006c2.2,0,4,1.205,4,2.671h0c0,1.472-1.8,2.671-4,2.671h-.932a2.322,2.322,0,0,1,1.142,1.865c0,1.269-1.307,2.3-3.058,2.588h8.062c2.2,0,4,1.2,4,2.671s-1.8,2.671-4,2.671H215.448c-2.195,0-4-1.205-4-2.671,0-1.269,1.313-2.309,3.058-2.594h-8.062c-2.195,0-4-1.2-4-2.664S204.252,422.786,206.446,422.786Z" transform="translate(-118.706 -187.989)" fill="#6c63ff" opacity="0.1"/>
      <path id="Path_37" data-name="Path 37" d="M693.336,713.44q-2.353,1.865-4.707,3.724c-.92.729-1.852,1.453-2.778,2.176-.672.527-1.338,1.053-2.023,1.573-3.432,2.645-6.908,5.233-10.454,7.707-.844.59-1.7,1.18-2.537,1.757a133.774,133.774,0,0,1-22.544,12.42l-.1.044v-29.4Z" transform="translate(-281.695 -295.928)" fill="#014689"/>
      <path id="Path_38" data-name="Path 38" d="M663.645,442.175l.71-21.916c-.425-.33-.856-.634-1.269-.939a116.819,116.819,0,0,0-1.116-19.544c-2.867-21.916-21.485-22.392-26.737-17.869a12.687,12.687,0,0,1-2.265,1.56c.476-3.127,1.066-6.261,1.491-9.357,2.3-16.7-1.269-35.479-14.222-46.269-5.424-4.51-12.052-7.282-18.009-11.057-10.67-6.73-19.1-16.67-29.89-23.223s-25.945-9.008-35.358-.584c-3.647,3.261-6,7.783-9.743,10.93-6.978,5.861-17.857,6.248-23.946,12.795h0c-.3.33-.6.666-.875,1.021-5.075,6.508-3.685,15.738-2.068,23.813,1.947,9.718,1.142,17.508,9.477,20.3.032.387.057.774.1,1.155a41.175,41.175,0,0,0,18.117,29.636l-1.351.482c-3.6,1.269-6.845,2.5-8.919,3.343-7.612,3.1-23.635,7.143-23.635,7.143s-.381,4.567-.311,11.3c-5.341,5.8-14.254,16-16.873,22.05-3.806,8.817-25.31,34.07-31.038,37.883s-11.938,8.335-11.938,8.335-9.071,5.005-13.366,5.481c-2.975.33-12.179-1.434-12.179-1.434s-36.76-45.038-34.375-10.479S405.8,512.466,405.8,512.466l29.6-.476s16,2.144,23.16-3.806c6.115-5.075,37.807-32.916,47.988-45.546.235.26.469.514.717.761,0,0,4.053-5.24,4.536,0s-2.633,7.612-.958,9.515,6.686,8.576,6.921,11.2-6.68,13.321,5.011,21.441c.184.127.381.247.6.368,2.087,4.751,8.722,9.4,8.722,9.4l35.809-.476,67.564,5.24s2.011-1.77,4.732-4.662c3.635,3.337,8.678,6.2,14.362,4.44,0,0,8.12-9.762,8.361-16.195,0,0-5.252-13.581-7.612-17.628s1.675-12.864,1.675-12.864,2.861-8.576,4.535-8.576.476-5.709.476-5.709a6.94,6.94,0,0,1-.717-6.432A61.562,61.562,0,0,0,663.645,442.175Z" transform="translate(-181.415 -140.214)" fill="url(#linear-gradient)"/>
      <path id="Path_39" data-name="Path 39" d="M724.849,487.852l-2.537,2.969h0l-10.251,11.938-13.391.812-21.434,1.319s-28.9-34.825-23.471-42.406c1.973-2.734,2.3-6.343,1.9-9.75-.051-.469-.12-.939-.2-1.4a40.522,40.522,0,0,0-3.375-10.4l.711-.324.457-.209,25.272-11.532,6.255-2.855a16.883,16.883,0,0,0,1.713,4.935c.121.241.254.482.393.71,8.621,14.273,36.265,5.246,36.265,5.246Z" transform="translate(-283.121 -190.827)" fill="#ee8e9e"/>
      <path id="Path_40" data-name="Path 40" d="M800.334,473.377c-.19,8.64-1.6,12.37-1.6,12.37l-35.77,5.449-1.338-9.287-5.3-36.671,4.973-4.973a13.277,13.277,0,0,0,11.374-2.842c5.208-4.5,23.686-4.028,26.528,17.762a120.606,120.606,0,0,1,1.129,18.193Z" transform="translate(-321.238 -194.17)" fill="#ee8e9e"/>
      <path id="Path_41" data-name="Path 41" d="M800.74,633.483s8.05-9.712,8.291-16.106l-8.056-13.505-7.1-7.612L780.6,621.875S789.367,637.035,800.74,633.483Z" transform="translate(-330.112 -253.08)" fill="#dfe5ee"/>
      <path id="Path_42" data-name="Path 42" d="M800.74,633.483s8.05-9.712,8.291-16.106l-8.056-13.505-7.1-7.612L780.6,621.875S789.367,637.035,800.74,633.483Z" transform="translate(-330.112 -253.08)" opacity="0.1"/>
      <path id="Path_43" data-name="Path 43" d="M475.162,709.766c-.672.527-1.338,1.053-2.024,1.573-3.432,2.645-6.908,5.233-10.454,7.707-.844.59-1.7,1.18-2.537,1.757H257.792l-59.869-2.144-48.146-.406-12.052-.634-60.135-3.172a150.972,150.972,0,0,1-4.954-22.113c-.247-1.687-.469-3.381-.634-5.075l65.7,3.641,12.052.679,108.016,6.026,12.084.672,155.629,8.69,11.976.672h.1Z" transform="translate(-71.006 -286.355)" fill="#d48a9b"/>
      <path id="Path_44" data-name="Path 44" d="M555.895,639.247a169.619,169.619,0,0,0-38.06,15.656c-.958.552-1.9,1.116-2.861,1.694s-1.9,1.154-2.823,1.751-1.846,1.186-2.759,1.789l-1.408.952-1.377.939c-1.357.932-2.7,1.9-4.034,2.842l-.051.038q-1.323.952-2.633,1.9c-4.941,3.66-9.775,7.492-14.59,11.336q-1.522,1.218-3.051,2.43l-4.694,3.724c-.92.73-1.852,1.453-2.778,2.176-.672.526-1.338,1.053-2.024,1.573l-35.523-1.694h-.1l-11.976-.558-155.7-7.377-12.084-.577-108.016-5.132-12.052-.577-65.09-3.064c-.247-1.687-.469-3.381-.634-5.075q-.495-4.358-.736-8.754l66.454-23.471,12.052-4.269,10.949-3.87,19.95,1.04,46.11,2.366h0l31.032,1.63,12.084.634,7.72.406h0l1.846.1h0l64.969,3.394h0l.685.044h0l28.989,1.51h.52l2.9.146h0l9.883.52,12.357.634h0l4.073.216h0l.768.044,5.76.3h0l1.643.082h0l5.5.292h0l2.189.121h.526l5.145.273,7.967.419h.038l2.474.127h.266l1.478.082,3.628.19h0l3.172.165H444l3.559.184h.057l2.7.146h0l2.068.108,7.339.387h0l1.319.07h.457l.634.038h0l2.15.114h0l.964.051h0l7.485.387h.685l11.05-.1h.076l42.012-.343h4.155l13.524-.108h2.017Z" transform="translate(-70.582 -263.088)" fill="#efc6cd"/>
      <path id="Path_45" data-name="Path 45" d="M387.914,645.525l3.908,20.787,106.239-1.6s7.993,2.309,7.815-4.085c0,0,16.169-15.281,98.069,2.487L572.5,638.42l-85.953,4.618-99.668-2.664Z" transform="translate(-186.145 -268.496)" fill="#6c63ff"/>
      <path id="Path_46" data-name="Path 46" d="M391.59,641.119l3.73,22.563s91.345-2.664,105.707-.178L490.173,642.9S434.941,637.745,391.59,641.119Z" transform="translate(-187.867 -269.064)" fill="#fff"/>
      <path id="Path_47" data-name="Path 47" d="M391.59,641.119l3.73,22.563s91.345-2.664,105.707-.178L490.173,642.9S434.941,637.745,391.59,641.119Z" transform="translate(-187.867 -269.064)" opacity="0.1"/>
      <path id="Path_48" data-name="Path 48" d="M393.74,641.035l3.679,20.984s90.184-2.474,104.393-.165l-10.7-19.164S436.545,637.9,393.74,641.035Z" transform="translate(-188.653 -269.063)" fill="#fff"/>
      <path id="Path_49" data-name="Path 49" d="M396.35,642.088l3.584,19.626s88.205-2.315,102.129-.152L491.6,643.63S438.223,639.126,396.35,642.088Z" transform="translate(-189.608 -269.469)" opacity="0.1"/>
      <path id="Path_50" data-name="Path 50" d="M397.47,640.966l3.6,19.665s88.205-2.315,102.129-.152L492.71,642.527S439.343,638.029,397.47,640.966Z" transform="translate(-190.017 -269.063)" fill="#fff"/>
      <path id="Path_51" data-name="Path 51" d="M291.773,557.41s4.618,6.033-2.125,15.148-12.313,16.8-10.061,22.487c0,0,10.149-16.924,18.459-17.127S300.888,567.585,291.773,557.41Z" transform="translate(-146.726 -238.874)" fill="#fff"/>
      <path id="Path_52" data-name="Path 52" d="M291.923,557.41a7.331,7.331,0,0,1,.945,1.9c8.082,9.515,12.389,18.4,4.618,18.586-7.238.2-15.916,13.143-18,16.417q.108.368.247.742s10.149-16.924,18.459-17.127S301.039,567.585,291.923,557.41Z" transform="translate(-146.877 -238.874)" opacity="0.1"/>
      <path id="Path_53" data-name="Path 53" d="M312.006,568.755c0,2.119-.241,3.844-.533,3.844s-.533-1.725-.533-3.844.3-1.129.59-1.129S312.006,566.63,312.006,568.755Z" transform="translate(-158.377 -242.524)" fill="#ffd037"/>
      <path id="Path_54" data-name="Path 54" d="M315.163,572.687c-1.865,1.021-3.489,1.637-3.628,1.376s1.269-1.269,3.121-2.309,1.129-.279,1.269,0S317.028,571.672,315.163,572.687Z" transform="translate(-158.59 -243.925)" fill="#ffd037"/>
      <path id="Path_55" data-name="Path 55" d="M254.688,557.41s-4.618,6.033,2.131,15.148,12.306,16.8,10.061,22.487c0,0-10.181-16.924-18.466-17.127S245.573,567.585,254.688,557.41Z" transform="translate(-134.02 -238.874)" fill="#fff"/>
      <path id="Path_56" data-name="Path 56" d="M254.688,557.41a7.613,7.613,0,0,0-.945,1.9c-8.082,9.515-12.389,18.4-4.618,18.586,7.238.2,15.922,13.143,18,16.417a7.63,7.63,0,0,1-.247.742s-10.181-16.924-18.466-17.127S245.573,567.585,254.688,557.41Z" transform="translate(-134.02 -238.874)" opacity="0.1"/>
      <path id="Path_57" data-name="Path 57" d="M247.13,568.755c0,2.119.241,3.844.533,3.844s.533-1.725.533-3.844-.3-1.129-.59-1.129S247.13,566.63,247.13,568.755Z" transform="translate(-135.044 -242.524)" fill="#ffd037"/>
      <path id="Path_58" data-name="Path 58" d="M241.838,572.687c1.865,1.021,3.5,1.637,3.635,1.376s-1.269-1.269-3.121-2.309-1.129-.279-1.269,0S239.973,571.672,241.838,572.687Z" transform="translate(-132.695 -243.925)" fill="#ffd037"/>
      <path id="Path_59" data-name="Path 59" d="M290.37,602.286l-.228,1.9-.324,2.658-.133,1.11-.324,2.664-.14,1.11-.33,2.664L285.2,644.667c-.33,2.7-4.745,4.808-10.073,4.808h-19.17c-5.328,0-9.737-2.106-10.067-4.808l-3.7-30.271-.323-2.664-.133-1.11-.33-2.664-.133-1.11-.324-2.658-.235-1.9c-.184-1.529,2.2-2.817,5.221-2.817h39.24C288.188,599.47,290.58,600.758,290.37,602.286Z" transform="translate(-132.694 -254.254)" fill="#676767"/>
      <path id="Path_60" data-name="Path 60" d="M219.862,551.59l-.324,2.664H170.974l-.324-2.664Z" transform="translate(-62.395 -201.673)" fill="#9d9cb5"/>
      <path id="Path_61" data-name="Path 61" d="M219.669,557.54l-.324,2.664H171.7l-.33-2.664Z" transform="translate(-62.659 -203.849)" fill="#9d9cb5"/>
      <path id="Path_62" data-name="Path 62" d="M219.473,563.49l-.324,2.658H172.424l-.324-2.658Z" transform="translate(-62.925 -206.025)" fill="#9d9cb5"/>
      <path id="Path_63" data-name="Path 63" d="M404.455,597.542s-12.319-11.843-11.843,3.552S404.455,597.542,404.455,597.542Z" transform="translate(-188.236 -251.958)" fill="#ee8e9e"/>
      <path id="Path_64" data-name="Path 64" d="M508.056,530.472c-.273,1.193-1.6,3.172-3.667,5.652-10.682,12.865-41.074,39.6-47.03,44.563-7.1,5.925-22.976,3.806-22.976,3.806l-29.37.476s-29.135-1.186-31.508-35.523,34.109,10.422,34.109,10.422,9.134,1.751,12.084,1.421c4.263-.469,13.264-5.443,13.264-5.443s6.159-4.5,11.843-8.291,27-28.9,30.8-37.667c2.4-5.563,10.149-14.66,15.5-20.559,3.07-3.394,5.347-5.709,5.347-5.709S509.712,523.127,508.056,530.472Z" transform="translate(-181.214 -211.892)" fill="#ee8e9e"/>
      <path id="Path_65" data-name="Path 65" d="M575.906,530.458c-.273,1.193-1.6,3.172-3.667,5.652-10.784-10.98-13.036-32.891-13.289-46.821,3.07-3.394,5.348-5.709,5.348-5.709S577.562,523.112,575.906,530.458Z" transform="translate(-249.064 -211.878)" opacity="0.1"/>
      <path id="Path_66" data-name="Path 66" d="M722.305,499.114h0l-10.245,11.938-13.391.812-21.434,1.319s-28.9-34.825-23.471-42.406c1.973-2.734,2.3-6.343,1.9-9.75-.051-.469-.12-.939-.2-1.4a40.522,40.522,0,0,0-3.375-10.4l.711-.323.457-.209a45.485,45.485,0,0,1,2.322,9.712c.07.45.133.92.2,1.4.222,1.713.425,3.616.634,5.709,1.649,19.17,13.708,26.382,19.151,28.679a55.239,55.239,0,0,1,5.125,2.48,27.346,27.346,0,0,0,17.191,3.108c13.435-1.763,24.39-11.526,24.39-11.526l.057,9.61Z" transform="translate(-283.121 -199.12)" opacity="0.1"/>
      <path id="Path_67" data-name="Path 67" d="M689.372,571.871s-88.116-.241-99.731-8.291-4.732-18.713-4.973-21.32-5.208-9.236-6.864-11.139,1.421-4.263.945-9.471-4.5,0-4.5,0c-16.588-16.823-13.036-59.457-13.036-59.457s15.859-4.022,23.471-7.111c2.062-.837,5.271-2.03,8.881-3.318l1.339-.482c9.306-3.33,20.369-7.092,20.369-7.092s2.125-1.5,4.263,2.994c.977,2.068,1.96,5.4,2.747,10.72.07.45.133.92.2,1.4.222,1.713.425,3.616.634,5.709,1.649,19.17,13.708,26.382,19.151,28.678a55.246,55.246,0,0,1,5.125,2.48,27.346,27.346,0,0,0,17.191,3.108c13.435-1.764,24.39-11.526,24.39-11.526l.057,9.61.165,28.875Z" transform="translate(-249.776 -197.386)" fill="#dfe5ee"/>
      <path id="Path_68" data-name="Path 68" d="M702.13,584.728l-1.421,9s-35.06,8.76-48.794,11.367-43.351-.71-45.482,4.973,9,13.505,9,13.505l35.523-.476L718,628.313s25.583-22.506,17.292-38.143S702.13,584.728,702.13,584.728Z" transform="translate(-266.327 -247.669)" fill="#ee8e9e"/>
      <path id="Path_69" data-name="Path 69" d="M635.823,474.58s-16.112,13.264-13.029,19.665S635.823,474.58,635.823,474.58Z" transform="translate(-272.266 -208.587)" opacity="0.1"/>
      <path id="Path_70" data-name="Path 70" d="M603.292,512.29s-16.347,28.19-15.4,30.322,5.449,9.712,5.208,4.028S603.292,512.29,603.292,512.29Z" transform="translate(-259.634 -222.376)" opacity="0.1"/>
      <path id="Path_71" data-name="Path 71" d="M617.837,520.14s-3.806,17.527-7.58,24.873S617.837,520.14,617.837,520.14Z" transform="translate(-267.544 -225.246)" opacity="0.1"/>
      <path id="Path_72" data-name="Path 72" d="M672.379,431.686a40.979,40.979,0,0,1-31.146,21.073h-.076a40.909,40.909,0,0,1-28.837-7.549c9.515-3.438,21.707-7.574,21.707-7.574s2.125-1.5,4.263,2.994l31.983-14.59A16.959,16.959,0,0,0,672.379,431.686Z" transform="translate(-268.579 -190.838)" opacity="0.1"/>
      <path id="Path_73" data-name="Path 73" d="M667.637,378.153a40.794,40.794,0,0,1-5.392,20.337,41.276,41.276,0,0,1-6.109,8.132A40.807,40.807,0,0,1,631.3,418.9h-.083a40,40,0,0,1-4.555.26A40.979,40.979,0,0,1,585.94,382.8a39.777,39.777,0,0,1-.26-4.623,40.978,40.978,0,1,1,81.957,0Z" transform="translate(-258.838 -158.352)" fill="#ee8e9e"/>
      <path id="Path_74" data-name="Path 74" d="M755.086,512.469l3.806-5.709s20.844-24.872,41.232-9l-.711,21.8s-.951,6.629-2.372,10.15a6.934,6.934,0,0,0,.71,6.4s1.186,5.709-.469,5.709-4.5,8.526-4.5,8.526-4.028,8.767-1.656,12.795,7.58,17.527,7.58,17.527-8.291-4.973-10.663-13.264c0,0-20.134-15.637-35.771-5.709Z" transform="translate(-319.753 -215.126)" opacity="0.1"/>
      <path id="Path_75" data-name="Path 75" d="M803.388,492.886c-.19,8.64-1.6,12.37-1.6,12.37l-35.77,5.449-1.339-9.287C769.362,496.533,786.387,481,803.388,492.886Z" transform="translate(-324.291 -213.679)" opacity="0.1"/>
      <path id="Path_76" data-name="Path 76" d="M755.086,510.469l3.806-5.709s20.844-24.872,41.232-9l-.711,21.8s-.951,6.629-2.372,10.149a6.933,6.933,0,0,0,.71,6.4s1.186,5.709-.469,5.709-4.5,8.526-4.5,8.526-4.028,8.767-1.656,12.795,7.58,17.527,7.58,17.527-8.291-4.973-10.663-13.264c0,0-20.134-15.636-35.771-5.709Z" transform="translate(-319.753 -214.395)" fill="#dfe5ee"/>
      <path id="Path_77" data-name="Path 77" d="M790.854,496.61s-34.343,21.085-32.687,39.577C758.167,536.187,777.355,502.294,790.854,496.61Z" transform="translate(-321.888 -216.642)" opacity="0.1"/>
      <path id="Path_78" data-name="Path 78" d="M697.975,458.34l.165,28.875c-6.5.292-12.617-.552-17.457-4.758A20.948,20.948,0,0,1,674.34,471.1a40.222,40.222,0,0,1-.825-10.739.579.579,0,0,1,0-.108c.4-7.974,2.233-15.947,1.269-23.87s-5.766-16.284-13.607-17.952c-1.548-.336-3.286-.457-4.39-1.592-1.218-1.269-1.161-3.241-1.028-5l.228-2.962c.057-.761.082-1.516.082-2.271A29.072,29.072,0,0,0,632.6,378.1l-.254-.044a16.03,16.03,0,0,0-6.711-.374c-4.2.971-6.914,5.043-10.784,6.978-7.422,3.7-19.8-.349-27.569-1.624-.507-.082-.99-.178-1.453-.285a39.807,39.807,0,0,1-.26-4.624,40.978,40.978,0,1,1,76.565,20.337c.121.241.254.482.393.71,8.621,14.273,36.265,5.246,36.265,5.246l1.662,50.931Z" transform="translate(-258.798 -158.34)" opacity="0.1"/>
      <path id="Path_79" data-name="Path 79" d="M610.233,367.043c3.844-1.941,6.559-6.014,10.784-6.978a16.181,16.181,0,0,1,6.718.368l.254.051a29.1,29.1,0,0,1,23.363,30.785l-.228,2.962c-.14,1.751-.2,3.736,1.034,4.992,1.1,1.135,2.836,1.269,4.383,1.586,7.84,1.675,12.642,9.991,13.607,17.958s-.9,15.966-1.269,23.972,1.1,16.842,7.155,22.1c9.515,8.246,23.978,3.552,36.57,2.8-5.57,0-9.743-5.747-10.048-11.3s2.169-10.847,4.536-15.858,4.738-10.4,4.212-15.947c-.723-7.612-6.724-13.708-9.02-21.035-2.677-8.526-.1-17.679,1.116-26.541,2.277-16.594-1.269-35.276-14.114-46-5.379-4.485-11.957-7.244-17.869-11-10.593-6.718-18.948-16.569-29.655-23.1s-25.742-8.957-35.085-.584c-3.616,3.241-5.95,7.739-9.667,10.866-7.263,6.121-18.808,6.236-24.631,13.746-5.011,6.464-3.654,15.643-2.049,23.667,2.138,10.7.932,19.03,12.37,20.933C590.435,366.7,602.8,370.754,610.233,367.043Z" transform="translate(-252.689 -141.426)" fill="#272727"/>
      <path id="Path_80" data-name="Path 80" d="M704.423,479.177c-9.166,1.123-18.25,1.7-24.923-4.085-6.052-5.259-7.542-14.089-7.155-22.1s2.239-16.017,1.269-23.978-5.766-16.277-13.607-17.952c-1.548-.33-3.28-.45-4.383-1.586-1.224-1.269-1.174-3.248-1.034-5l.228-2.962a29.091,29.091,0,0,0-23.363-30.778l-.254-.051a16.179,16.179,0,0,0-6.718-.368c-4.2.971-6.914,5.075-10.784,6.978-7.428,3.711-19.791-.342-27.575-1.617-11.418-1.871-10.226-10.213-12.37-20.933-1.2-5.988-2.258-12.623-.634-18.294a9.955,9.955,0,0,0-.875,1.021c-5.011,6.464-3.654,15.643-2.049,23.667,2.138,10.7.932,19.03,12.37,20.933,7.777,1.269,20.147,5.328,27.575,1.618,3.844-1.941,6.559-6.014,10.784-6.978a16.181,16.181,0,0,1,6.718.368l.254.051a29.1,29.1,0,0,1,23.363,30.785l-.228,2.962c-.14,1.751-.2,3.736,1.034,4.992,1.1,1.136,2.836,1.269,4.383,1.586,7.84,1.675,12.642,9.991,13.607,17.958s-.894,15.966-1.269,23.972,1.1,16.842,7.155,22.1c9.515,8.246,23.978,3.552,36.57,2.8C709.091,484.3,706.218,482.133,704.423,479.177Z" transform="translate(-252.641 -158.078)" opacity="0.1"/>
      <path id="Path_81" data-name="Path 81" d="M373.469,586.264l39.107-14.59a3.723,3.723,0,0,1,4.789,2.182h0a3.724,3.724,0,0,1-2.182,4.789l-39.107,14.59-8.386-.837Z" transform="translate(-179.128 -244.003)" fill="#5c5c8e"/>
      <path id="Path_82" data-name="Path 82" d="M416.171,573h0a3.724,3.724,0,0,1-2.189,4.789L374.85,592.431l-6.293-.634-.907.964,8.386.837,39.107-14.59a3.724,3.724,0,0,0,2.182-4.789h0a3.724,3.724,0,0,0-1.522-1.859A4.324,4.324,0,0,1,416.171,573Z" transform="translate(-179.113 -244.341)" fill="#fff" opacity="0.1"/>
      <path id="Path_83" data-name="Path 83" d="M303.039,539.52l2.6,6.971-6.876-.691-1.5-.152,2.055-2.182Z" transform="translate(-108.691 -197.26)" fill="#efc8c4"/>
      <path id="Path_84" data-name="Path 84" d="M369.756,601a1.661,1.661,0,0,1,.406.438.634.634,0,0,1,0,.679,1.35,1.35,0,0,1-.374.273,1.269,1.269,0,0,0-.558.939l-1.51-.146Z" transform="translate(-179.139 -254.813)" fill="#727a9c"/>
      <path id="Path_85" data-name="Path 85" d="M569.953,651.9s33.874-7.111,90.711,1.9L638.4,637.461,597.89,629.17l-28.66,7.612Z" transform="translate(-252.823 -265.114)" fill="#fff"/>
      <path id="Path_86" data-name="Path 86" d="M569.953,651.9s33.874-7.111,90.711,1.9L638.4,637.461,597.89,629.17l-28.66,7.612Z" transform="translate(-252.823 -265.114)" opacity="0.1"/>
      <path id="Path_87" data-name="Path 87" d="M557.879,660.71s17.057-46.142,104.666.146L631.1,640.621s-75.328-20.813-84.031,3.172Z" transform="translate(-244.72 -266.238)" fill="#fff"/>
      <path id="Path_88" data-name="Path 88" d="M557.854,658.747s17.057-49.333,104.666.888l-31.444-21.948S555.722,612.8,547,638.848Z" transform="translate(-244.694 -264.306)" opacity="0.1"/>
      <path id="Path_89" data-name="Path 89" d="M557.879,658.657s17.057-50.062,104.666.159L631.1,636.868s-75.328-24.181-84.031,1.9Z" transform="translate(-244.72 -264.197)" fill="#fff"/>
      <path id="Path_90" data-name="Path 90" d="M557.865,657.5s17.057-55.638,104.666.856l-31.47-24.695s-75.328-25.374-84.031,3.908Z" transform="translate(-244.705 -263.025)" opacity="0.1"/>
      <path id="Path_91" data-name="Path 91" d="M557.865,657.056s17.057-56.317,104.666.178l-31.47-24.7s-75.328-25.374-84.031,3.908Z" transform="translate(-244.705 -262.615)" fill="#fff"/>
      <path id="Path_92" data-name="Path 92" d="M972.685,668.71s-21.028,22.525-2.1,33.468a5.25,5.25,0,0,0,6.007,1.421s-1.193-1.059,1.2-3.1a14.191,14.191,0,0,0,2.252-2.474,6.978,6.978,0,0,0,1.307-4.225h0s2.753-8.938-5.994-20.54c0,0-.793-3.882-1.465-4.307l-1.6,5.411s4.015,1.021,5.525,4.079c0,0-5.29-4.155-5.8-3.286-.1.178-.717,2.912-.717,2.912s6.978,1.8,9.16,6.6c0,0-5.639-5.792-9.4-5.563l-.685,4.174s7.466,1.548,10.149,6.914c0,0-6.1-5.855-10.251-5.988l-.12,4.193s7.25,1.649,9.464,6.128c0,0-7.733-6.045-9.426-5.164,0,0,.121,3.863.634,4.872,0,0,5.176,1.269,6.229,4.022,0,0-5.595-3.5-6.077-2.962,0,0,1.5,4.986,3.6,7.111a15.782,15.782,0,0,1-4.364-6.838,8.7,8.7,0,0,0-1.053,4.865s-2.074-2.3.7-6.077c0,0-1.015-3.933-.761-4.555,0,0-3.267,3.343-4.1,6.343,0,0-.634-3.755,4.1-7.428v-4.225s-4.554,4.193-5.493,6.788c0,0-.063-3.933,5.589-7.847l.634-4.1s-4.2,3.311-5.868,5.976c0,0,.723-3.667,6.089-7.143l.742-2.69s-3.019,2.474-3.806,3.26-1.085.634-1.085.634a13.322,13.322,0,0,1,5.2-5.037S973.034,668.856,972.685,668.71Z" transform="translate(-396.693 -279.572)" fill="#69a55b"/>
      <path id="Path_93" data-name="Path 93" d="M1116.034,90.91s-28.1,12.687-14.85,30.061a5.257,5.257,0,0,0,4.992,3.635s-.691-1.44,2.3-2.4a13.9,13.9,0,0,0,3.032-1.415,6.979,6.979,0,0,0,2.836-3.394h0s5.988-7.181,2.391-21.257c0,0,.767-3.889.311-4.542l-3.565,4.377s3.311,2.487,3.527,5.893c0,0-3.273-5.874-4.085-5.265-.165.121-1.783,2.4-1.783,2.4s5.709,4.352,5.906,9.623c0,0-2.969-7.523-6.534-8.767l-2.239,3.59s6.293,4.307,6.711,10.3c0,0-3.375-7.752-7.149-9.477l-1.732,3.806s6.058,4.32,6.343,9.306c0,0-4.8-8.564-6.7-8.4,0,0-1.377,3.6-1.269,4.739,0,0,4.276,3.172,4.2,6.115,0,0-3.806-5.379-4.44-5.075,0,0-.539,5.176.577,7.948a15.747,15.747,0,0,1-1.389-7.993,8.681,8.681,0,0,0-2.848,4.085s-1.028-2.924,2.994-5.341c0,0,.577-4.015,1.053-4.491,0,0-4.307,1.821-6.223,4.244,0,0,.856-3.711,6.648-5.271l1.649-3.882s-5.817,2.106-7.688,4.136c0,0,1.459-3.654,8.183-5.075l2.163-3.54s-5.151,1.44-7.72,3.248c0,0,2.087-3.1,8.38-4.237l1.719-2.195s-3.742,1.116-4.789,1.535-1.269.171-1.269.171a13.321,13.321,0,0,1,6.781-2.639S1116.263,91.164,1116.034,90.91Z" transform="translate(-446.039 -68.294)" fill="#69a55b"/>
      <path id="Path_94" data-name="Path 94" d="M690.525,103.29s-42.209,12.052-21.688,29.992c0,0,1.82,3.806,7.663,3.806,0,0-1.091-1.472,3.426-2.366a26.826,26.826,0,0,0,4.554-1.345,8.126,8.126,0,0,0,4.2-3.356h0s8.881-7.1,3.051-21.428c0,0,1.059-3.908.349-4.58l-5.278,4.326s5.075,2.607,5.5,6.052c0,0-5.119-6.02-6.343-5.43-.247.121-2.639,2.379-2.639,2.379s8.8,4.555,9.2,9.889c0,0-4.694-7.682-10.149-9.033l-3.3,3.565s9.642,4.523,10.435,10.587c0,0-5.316-7.923-11.076-9.769l-2.537,3.806s9.287,4.529,9.9,9.579c0,0-7.5-8.786-10.384-8.678,0,0-1.986,3.616-1.808,4.764,0,0,6.559,3.349,6.527,6.293,0,0-5.925-5.544-6.9-5.252,0,0-.672,5.221,1.091,8.05,0,0-3.057-4.066-2.322-8.113,0,0-3.356,1.681-4.2,4.047,0,0-1.637-2.975,4.39-5.309,0,0,.768-4.047,1.472-4.516,0,0-6.47,1.725-9.306,4.123,0,0,1.193-3.73,9.921-5.151l2.4-3.882s-8.754,1.979-11.532,3.977c0,0,2.112-3.654,12.262-4.922l3.172-3.521s-7.764,1.313-11.608,3.077c0,0,3.076-3.077,12.573-4.06l2.537-2.169s-5.639,1.028-7.213,1.421-1.9.14-1.9.14a24.986,24.986,0,0,1,10.149-2.487S690.892,103.556,690.525,103.29Z" transform="translate(-287.187 -72.821)" fill="#69a55b"/>
      <path id="Path_95" data-name="Path 95" d="M897.472,824.325s21.25-22.322,2.43-33.449a5.26,5.26,0,0,0-5.995-1.484s1.186,1.072-1.224,3.1a14.319,14.319,0,0,0-2.277,2.449,6.934,6.934,0,0,0-1.345,4.212h0s-2.848,8.913,5.792,20.6c0,0,.755,3.888,1.421,4.326l1.656-5.4s-4.009-1.059-5.487-4.13c0,0,5.246,4.2,5.766,3.337.108-.178.749-2.9.749-2.9s-6.978-1.9-9.1-6.686c0,0,5.582,5.849,9.35,5.652l.723-4.168s-7.447-1.618-10.092-6.978c0,0,6.045,5.912,10.194,6.09l.159-4.2s-7.238-1.751-9.433-6.255c0,0,7.675,6.128,9.375,5.259,0,0-.082-3.857-.634-4.872,0,0-5.164-1.357-6.191-4.085,0,0,5.563,3.552,6.045,3.02,0,0-1.453-5-3.527-7.143a15.774,15.774,0,0,1,4.3,6.876,8.671,8.671,0,0,0,1.1-4.853s2.055,2.322-.761,6.071c0,0,.977,3.946.717,4.561,0,0,3.3-3.311,4.161-6.274,0,0,.634,3.762-4.168,7.384l-.064,4.225s4.593-4.148,5.557-6.737c0,0,0,3.939-5.665,7.8l-.634,4.1s4.231-3.273,5.925-5.918c0,0-.761,3.654-6.159,7.079l-.768,2.683s3.045-2.442,3.857-3.222,1.091-.634,1.091-.634a13.278,13.278,0,0,1-5.252,4.986S897.155,824.173,897.472,824.325Z" transform="translate(-369.607 -323.543)" fill="#69a55b"/>
      <path id="Path_96" data-name="Path 96" d="M575.85,56.1s3.622,30.6,24.2,23.217a5.261,5.261,0,0,0,4.967-3.673s-1.586.228-1.6-2.918a14.2,14.2,0,0,0-.438-3.318,6.927,6.927,0,0,0-2.379-3.724h0S595.553,57.8,581.02,57.03c0,0-3.476-1.9-4.237-1.662l3.1,4.713s3.368-2.41,6.68-1.586c0,0-6.584,1.357-6.248,2.309.063.2,1.751,2.423,1.751,2.423s5.931-4.187,11.006-2.759c0,0-8.062.558-10.321,3.584l2.709,3.222s6-4.707,11.843-3.3c0,0-8.411.888-11.2,3.965l3.159,2.8s5.937-4.478,10.784-3.273c0,0-9.617,2-10.035,3.863,0,0,3.026,2.4,4.142,2.652,0,0,4.339-3.115,7.092-2.163,0,0-6.28,2.017-6.185,2.728,0,0,4.777,2.068,7.752,1.84a16.1,16.1,0,0,1-8.037-1.078,8.7,8.7,0,0,0,3.038,3.946s-3.1.1-4.193-4.44c0,0-3.654-1.763-3.965-2.353,0,0,.444,4.65,2.176,7.206,0,0-3.286-1.9-3.032-7.923l-3.172-2.747s.26,6.185,1.63,8.583c0,0-3.045-2.493-2.385-9.337l-2.721-3.127s-.184,5.341.768,8.335c0,0-2.328-2.918-1.516-9.261l-1.58-2.3s-.057,3.9,0,5.03-.216,1.237-.216,1.237a13.322,13.322,0,0,1-.495-7.251S576.167,55.945,575.85,56.1Z" transform="translate(-255.243 -55.29)" fill="#69a55b"/>
      <path id="Path_97" data-name="Path 97" d="M800.427,734.42s-29.7-8.246-30.651,13.6a5.263,5.263,0,0,0,1.516,5.988s.387-1.548,3.3-.374a14.215,14.215,0,0,0,3.235.856,6.934,6.934,0,0,0,4.352-.8h0s9.2-1.687,15.44-14.806c0,0,3.077-2.493,3.172-3.292l-5.538,1.085s.952,4.034-1.066,6.788c0,0,1.269-6.61.235-6.661-.209,0-2.912.7-2.912.7s1.624,7.016-1.618,11.171c0,0,2.537-7.676.59-10.911l-4.022,1.326s2.081,7.333-1.434,12.2c0,0,2.372-8.113.571-11.856l-3.768,1.833s1.9,7.193-1.059,11.228c0,0,1.789-9.655.222-10.752,0,0-3.362,1.9-4.015,2.829,0,0,1.269,5.2-.685,7.384,0,0,.508-6.578-.184-6.756,0,0-3.73,3.635-4.643,6.477a15.772,15.772,0,0,1,4.047-7.029,8.712,8.712,0,0,0-4.8,1.313s1.078-2.9,5.709-2.182c0,0,3.019-2.721,3.685-2.778,0,0-4.44-1.358-7.5-.723,0,0,3.032-2.309,8.481.2l3.755-1.9s-5.823-2.1-8.557-1.738c0,0,3.457-1.9,9.515,1.326l3.92-1.339s-4.872-2.188-8.005-2.442c0,0,3.584-1.047,9.147,2.106l2.728-.59s-3.59-1.535-4.662-1.9-1.066-.634-1.066-.634a13.32,13.32,0,0,1,6.87,2.284S800.446,734.769,800.427,734.42Z" transform="translate(-326.018 -303.042)" fill="#69a55b"/>
    </g>
  </g>
</svg>
