<svg xmlns="http://www.w3.org/2000/svg" width="677.527" height="444.261" viewBox="0 0 677.527 444.261">
  <g id="error-video" transform="translate(-9697.085 -1813.207)">
    <g id="Group_849" data-name="Group 849" transform="translate(9697.085 1813.207)">
      <path id="Path_102" data-name="Path 102" d="M61.83,433.31C72.557,474.767,95.246,510.6,131.1,527.976c74.539,36.1,242.645,17.483,368.109-3.891,64.9-11.054,121.943-41.562,163.382-84.494Z" transform="translate(-54.513 -193.07)" fill="#014689" opacity="0.15"/>
      <path id="Path_103" data-name="Path 103" d="M730.488,89.392H661.649c-3.267,0-5.947-2.421-5.947-5.379s2.68-5.385,5.947-5.385h11.907a5.409,5.409,0,1,1,0-10.764h-8.5c-3.273,0-5.953-2.421-5.953-5.385s2.68-5.379,5.953-5.379h35.93a102.963,102.963,0,0,0-28.031-6.991C574.981,38.727,540,46.255,527.663,53.993a144.83,144.83,0,0,1-50.356,19.972c-60.447,11.283-173.491,24.857-275.95-4.323C150.433,55.111,112.583,79.635,89.9,120.628H742.444c-.852-11.913-3.4-22.918-8.084-32.545a6.28,6.28,0,0,1-3.872,1.309Z" transform="translate(-65.248 -44.294)" fill="#014689" opacity="0.15"/>
      <path id="Path_104" data-name="Path 104" d="M51.463,293.19a248.588,248.588,0,0,0,2.668,72.329l604.393,20a256.416,256.416,0,0,0,41.994-57.939Zm239.045,51.6h-11.9c3.273,0,5.953,2.427,5.953,5.385s-2.68,5.379-5.953,5.379H209.768c-3.267,0-5.947-2.421-5.947-5.379s2.68-5.385,5.947-5.385h11.907c-3.273,0-5.947-2.421-5.947-5.379a5.7,5.7,0,0,1,5.947-5.385h-8.5c-3.273,0-5.953-2.421-5.953-5.379s2.68-5.385,5.953-5.385H282.01a5.409,5.409,0,1,1,0,10.764h8.5a5.409,5.409,0,1,1,0,10.764Z" transform="translate(-49.981 -139.482)" fill="#014689" opacity="0.15"/>
      <path id="Path_105" data-name="Path 105" d="M728.173,168.5,68.323,183.013c-8.028,18.669-13.352,39.777-15.8,61.651H716.613a234.228,234.228,0,0,0,9.585-39.3A168.213,168.213,0,0,0,728.173,168.5Zm-541.68,47.583h-11.9c3.273,0,5.953,2.427,5.953,5.385s-2.68,5.385-5.953,5.385H105.754c-3.267,0-5.947-2.427-5.947-5.385s2.68-5.385,5.947-5.385H117.66c-3.273,0-5.947-2.421-5.947-5.379a5.7,5.7,0,0,1,5.947-5.385h-8.5c-3.273,0-5.953-2.421-5.953-5.379s2.68-5.385,5.953-5.385H178a5.409,5.409,0,1,1,0,10.764h8.5a5.409,5.409,0,1,1,0,10.764Z" transform="translate(-50.952 -91.796)" fill="#014689" opacity="0.15"/>
      <path id="Path_154" data-name="Path 154" d="M848.645,113.478s-52-3.131-45.866,33.3c0,0-1.235,6.435,4.619,9.362,0,0,.093-2.7,5.33-1.785a24.084,24.084,0,0,0,5.651.272,11.733,11.733,0,0,0,6.9-2.853h0s14.618-6.034,20.305-29.927c0,0,4.206-5.212,4.039-6.546l-8.775,3.742s3,6.33.617,11.592c0,0-.284-11.357-1.97-11.116-.34.056-4.558,2.192-4.558,2.192s5.157,11.03,1.235,19.039c0,0,1.476-13.586-2.878-18.243l-6.176,3.607s6.027,11.388,1.939,20.682c0,0,1.05-14.253-3.236-19.805l-5.6,4.366s5.663,11.227,2.211,18.934c0,0-.451-16.594-3.421-17.847,0,0-4.9,4.323-5.645,6.1,0,0,3.878,8.146,1.476,12.444,0,0-1.476-11.054-2.686-11.116,0,0-4.879,7.324-5.391,12.351,0,0,.216-7.472,4.206-13.049,0,0-4.718.809-7.466,3.872,0,0,.76-5.181,8.646-5.632,0,0,4.033-5.558,5.113-5.892,0,0-7.874-.661-12.648,1.457,0,0,4.2-4.885,14.087-2.668l5.558-4.508s-10.363-1.42-14.76.148c0,0,5.058-4.323,16.248-1.173l6.021-3.6s-8.837-1.9-14.105-1.235c0,0,5.558-3,15.865.253l4.323-1.933s-6.478-1.272-8.374-1.47-1.995-.729-1.995-.729a22.448,22.448,0,0,1,12.184,1.414S848.8,114.053,848.645,113.478Z" transform="translate(-337.689 -70.727)" fill="#014689"/>
      <path id="Path_169" data-name="Path 169" d="M848.645,113.478s-52-3.131-45.866,33.3c0,0-1.235,6.435,4.619,9.362,0,0,.093-2.7,5.33-1.785a24.084,24.084,0,0,0,5.651.272,11.733,11.733,0,0,0,6.9-2.853h0s14.618-6.034,20.305-29.927c0,0,4.206-5.212,4.039-6.546l-8.775,3.742s3,6.33.617,11.592c0,0-.284-11.357-1.97-11.116-.34.056-4.558,2.192-4.558,2.192s5.157,11.03,1.235,19.039c0,0,1.476-13.586-2.878-18.243l-6.176,3.607s6.027,11.388,1.939,20.682c0,0,1.05-14.253-3.236-19.805l-5.6,4.366s5.663,11.227,2.211,18.934c0,0-.451-16.594-3.421-17.847,0,0-4.9,4.323-5.645,6.1,0,0,3.878,8.146,1.476,12.444,0,0-1.476-11.054-2.686-11.116,0,0-4.879,7.324-5.391,12.351,0,0,.216-7.472,4.206-13.049,0,0-4.718.809-7.466,3.872,0,0,.76-5.181,8.646-5.632,0,0,4.033-5.558,5.113-5.892,0,0-7.874-.661-12.648,1.457,0,0,4.2-4.885,14.087-2.668l5.558-4.508s-10.363-1.42-14.76.148c0,0,5.058-4.323,16.248-1.173l6.021-3.6s-8.837-1.9-14.105-1.235c0,0,5.558-3,15.865.253l4.323-1.933s-6.478-1.272-8.374-1.47-1.995-.729-1.995-.729a22.448,22.448,0,0,1,12.184,1.414S848.8,114.053,848.645,113.478Z" transform="translate(-337.689 -70.727)" fill="#014689"/>
      <path id="Path_155" data-name="Path 155" d="M778.027,87.271s-23.467-1.42-20.725,15.044a4.016,4.016,0,0,0,2.087,4.23s.037-1.235,2.408-.8a11.152,11.152,0,0,0,2.55.124,5.366,5.366,0,0,0,3.125-1.291h0s6.6-2.73,9.171-13.525c0,0,1.9-2.353,1.853-2.958l-3.965,1.692s1.359,2.859.29,5.237c0,0-.13-5.132-.889-5.008-.154,0-2.063.988-2.063.988s2.334,4.984.574,8.6c0,0,.667-6.139-1.3-8.244l-2.791,1.63s2.723,5.15.877,9.35c0,0,.469-6.441-1.464-8.948l-2.532,1.97s2.557,5.07,1,8.553c0,0-.2-7.5-1.55-8.065a15.49,15.49,0,0,0-2.551,2.754s1.754,3.705.667,5.626c0,0-.667-5-1.235-5.015,0,0-2.2,3.3-2.433,5.558a12.029,12.029,0,0,1,1.9-5.9,6.614,6.614,0,0,0-3.372,1.748s.34-2.341,3.915-2.544c0,0,1.822-2.507,2.31-2.662,0,0-3.557-.3-5.712.661,0,0,1.9-2.211,6.367-1.235l2.47-2.032s-4.681-.618-6.67.062c0,0,2.285-1.951,7.343-.525l2.717-1.63a24.711,24.711,0,0,0-6.373-.55s2.513-1.352,7.17.117l1.945-.877s-2.927-.574-3.779-.661-.908-.327-.908-.327a10.122,10.122,0,0,1,5.5.618S778.1,87.53,778.027,87.271Z" transform="translate(-320.404 -60.719)" fill="#014689"/>
      <path id="Path_170" data-name="Path 170" d="M838.241,113.463s-40.332-2.429-35.576,25.833c0,0-.958,4.991,3.583,7.262,0,0,.072-2.093,4.134-1.384a18.682,18.682,0,0,0,4.383.211,9.1,9.1,0,0,0,5.355-2.213h0s11.338-4.68,15.75-23.212c0,0,3.262-4.043,3.133-5.077l-6.807,2.9s2.323,4.91.479,8.991c0,0-.22-8.809-1.528-8.622-.263.043-3.535,1.7-3.535,1.7s4,8.555.958,14.768c0,0,1.145-10.538-2.232-14.15l-4.79,2.8s4.675,8.833,1.5,16.042c0,0,.814-11.055-2.51-15.362l-4.345,3.387s4.393,8.708,1.715,14.686c0,0-.35-12.871-2.654-13.843,0,0-3.8,3.353-4.378,4.728,0,0,3.008,6.318,1.145,9.652,0,0-1.145-8.574-2.084-8.622,0,0-3.784,5.681-4.182,9.58,0,0,.168-5.8,3.262-10.121a11.363,11.363,0,0,0-5.791,3s.589-4.019,6.706-4.368c0,0,3.128-4.311,3.966-4.57,0,0-6.107-.513-9.81,1.13,0,0,3.257-3.789,10.926-2.069l4.311-3.5s-8.038-1.1-11.448.115c0,0,3.923-3.353,12.6-.91l4.67-2.793s-6.854-1.475-10.94-.958c0,0,4.311-2.323,12.305.2l3.353-1.5s-5.025-.987-6.5-1.14-1.547-.565-1.547-.565a17.411,17.411,0,0,1,9.451,1.1S838.361,113.909,838.241,113.463Z" transform="translate(-487.88 208.795)" fill="#014689"/>
      <g id="Group_852" data-name="Group 852" transform="translate(193.014 88.892)">
        <rect id="Rectangle_364" data-name="Rectangle 364" width="293.665" height="190.825" rx="30" fill="#fbfbfb"/>
        <g id="Group_850" data-name="Group 850" transform="translate(106.084 46.458)">
          <path id="Subtraction_1" data-name="Subtraction 1" d="M8.2,87.335a8.337,8.337,0,0,1-5.7-2.291A8.074,8.074,0,0,1,0,79.139V13.768L42.607,68.3,12.349,86.183A8.151,8.151,0,0,1,8.2,87.335ZM48.937,64.563,1.29,3.578A8.118,8.118,0,0,1,8.164,0a8.224,8.224,0,0,1,4.185,1.12l60.041,35.5a8.179,8.179,0,0,1,0,14.089L48.938,64.563Z" transform="translate(5.834 9.548)" fill="#a5a5a5"/>
          <rect id="Rectangle_363" data-name="Rectangle 363" width="7.29" height="115.784" rx="3.645" transform="translate(0 4.488) rotate(-38)" fill="#a5a5a5"/>
        </g>
      </g>
      <path id="Path_171" data-name="Path 171" d="M824.938,113.444s-25.413-1.53-22.416,16.277a4.328,4.328,0,0,0,2.258,4.576s.045-1.319,2.6-.872a11.773,11.773,0,0,0,2.762.133,5.735,5.735,0,0,0,3.374-1.394h0s7.144-2.949,9.924-14.626c0,0,2.055-2.547,1.974-3.2l-4.289,1.829s1.464,3.094.3,5.665c0,0-.139-5.55-.963-5.433-.166.027-2.227,1.071-2.227,1.071s2.52,5.39.6,9.305c0,0,.721-6.64-1.406-8.916l-3.018,1.763s2.946,5.566.948,10.108c0,0,.513-6.966-1.581-9.679l-2.738,2.134s2.768,5.487,1.081,9.254c0,0-.22-8.11-1.672-8.723a16.745,16.745,0,0,0-2.759,2.979s1.9,3.981.721,6.082c0,0-.721-5.4-1.313-5.433,0,0-2.384,3.58-2.635,6.036A13.049,13.049,0,0,1,806.527,126a7.16,7.16,0,0,0-3.649,1.892s.371-2.532,4.225-2.753c0,0,1.971-2.716,2.5-2.879,0,0-3.848-.323-6.181.712,0,0,2.052-2.387,6.884-1.3l2.716-2.2s-5.065-.694-7.214.072c0,0,2.472-2.113,7.941-.573l2.943-1.76a26.983,26.983,0,0,0-6.894-.6s2.716-1.464,7.754.124l2.113-.945s-3.166-.622-4.093-.718-.975-.356-.975-.356a10.971,10.971,0,0,1,5.955.691S825.013,113.725,824.938,113.444Z" transform="translate(-549.018 -14.806)" fill="#014689"/>
      <path id="Path_172" data-name="Path 172" d="M824.938,113.444s-25.413-1.53-22.416,16.277a4.328,4.328,0,0,0,2.258,4.576s.045-1.319,2.6-.872a11.773,11.773,0,0,0,2.762.133,5.735,5.735,0,0,0,3.374-1.394h0s7.144-2.949,9.924-14.626c0,0,2.055-2.547,1.974-3.2l-4.289,1.829s1.464,3.094.3,5.665c0,0-.139-5.55-.963-5.433-.166.027-2.227,1.071-2.227,1.071s2.52,5.39.6,9.305c0,0,.721-6.64-1.406-8.916l-3.018,1.763s2.946,5.566.948,10.108c0,0,.513-6.966-1.581-9.679l-2.738,2.134s2.768,5.487,1.081,9.254c0,0-.22-8.11-1.672-8.723a16.745,16.745,0,0,0-2.759,2.979s1.9,3.981.721,6.082c0,0-.721-5.4-1.313-5.433,0,0-2.384,3.58-2.635,6.036A13.049,13.049,0,0,1,806.527,126a7.16,7.16,0,0,0-3.649,1.892s.371-2.532,4.225-2.753c0,0,1.971-2.716,2.5-2.879,0,0-3.848-.323-6.181.712,0,0,2.052-2.387,6.884-1.3l2.716-2.2s-5.065-.694-7.214.072c0,0,2.472-2.113,7.941-.573l2.943-1.76a26.983,26.983,0,0,0-6.894-.6s2.716-1.464,7.754.124l2.113-.945s-3.166-.622-4.093-.718-.975-.356-.975-.356a10.971,10.971,0,0,1,5.955.691S825.013,113.725,824.938,113.444Z" transform="translate(-337.813 122.292)" fill="#014689"/>
    </g>
    <g id="Group_851" data-name="Group 851" transform="translate(9725.651 1990.725)">
      <g id="Group_848" data-name="Group 848" transform="translate(0 0)">
        <circle id="Ellipse_47" data-name="Ellipse 47" cx="117.543" cy="117.543" r="117.543" fill="#014689"/>
        <path id="Path_151" data-name="Path 151" d="M530.459,572.057c0,18.555-29.17,1.585-60.444,1.585s-62.905,16.269-62.905-2.286c0-10.581,10.082-25.3,24.545-35.983h0c10.9-8.055,24.278-13.823,37.72-13.823,13.823,0,27.364,6.245,38.166,14.818C521.174,547.177,530.459,561.7,530.459,572.057Z" transform="translate(-351.242 -395.446)" fill="#2e2e2e"/>
        <path id="Path_152" data-name="Path 152" d="M547.413,536.348c-16.624-2.5-46.689-5.555-75.883-.995,10.9-8.055,24.278-13.823,37.72-13.823C523.07,521.53,536.611,527.775,547.413,536.348Z" transform="translate(-391.118 -395.434)" fill="#f6f8fb"/>
        <path id="Path_153" data-name="Path 153" d="M350.055,281.31s-35.408,22.636-35.118,58.044S350.055,281.31,350.055,281.31Z" transform="translate(-294.188 -246.741)" opacity="0.05"/>
        <path id="Path_167" data-name="Path 167" d="M414.646,446.7c2.237-.126,12.764-.918,19.451-4.732a7.578,7.578,0,0,1,3.532-1.04c2.126-.061,4.572.827,3.006,5.8-2.538,8.127-17.271,17.271-26.416,16.765C405.426,463,394.993,459.461,388.1,447a7.621,7.621,0,0,1-.941-3.921c.08-2.515.994-5.666,5.715-2.153,6.378,4.744,18.479,5.643,20.906,5.776a8.048,8.048,0,0,0,.861,0Z" transform="translate(-338.893 -344.574)" fill="#2e2e2e"/>
        <path id="Path_168" data-name="Path 168" d="M636.646,446.7c2.237-.126,12.764-.918,19.451-4.732a7.577,7.577,0,0,1,3.532-1.04c2.126-.061,4.572.827,3.006,5.8-2.537,8.127-17.271,17.271-26.416,16.765C627.426,463,616.993,459.461,610.1,447a7.62,7.62,0,0,1-.941-3.921c.08-2.515.994-5.666,5.715-2.153,6.378,4.744,18.479,5.643,20.906,5.776a8.049,8.049,0,0,0,.861,0Z" transform="translate(-476.309 -344.574)" fill="#2e2e2e"/>
      </g>
      <ellipse id="Ellipse_48" data-name="Ellipse 48" cx="86.271" cy="11.998" rx="86.271" ry="11.998" transform="translate(30.755 242.747)" opacity="0.05"/>
    </g>
  </g>
</svg>
